<svg width="316" height="41" viewBox="0 0 316 41" fill="none" xmlns="http://www.w3.org/2000/svg">
<g clip-path="url(#clip0_1_72)">
<rect width="316" height="41" fill="black"/>
<path d="M42.897 14.695V20.47H50.652V24.133H42.897V30.238H51.642V34H38.277V10.933H51.642V14.695H42.897ZM60.4605 18.391C61.0545 17.511 61.8685 16.796 62.9025 16.246C63.9585 15.696 65.1575 15.421 66.4995 15.421C68.0615 15.421 69.4695 15.806 70.7235 16.576C71.9995 17.346 73.0005 18.446 73.7265 19.876C74.4745 21.284 74.8485 22.923 74.8485 24.793C74.8485 26.663 74.4745 28.324 73.7265 29.776C73.0005 31.206 71.9995 32.317 70.7235 33.109C69.4695 33.901 68.0615 34.297 66.4995 34.297C65.1355 34.297 63.9365 34.033 62.9025 33.505C61.8905 32.955 61.0765 32.251 60.4605 31.393V34H55.8405V9.58H60.4605V18.391ZM70.1295 24.793C70.1295 23.693 69.8985 22.747 69.4365 21.955C68.9965 21.141 68.4025 20.525 67.6545 20.107C66.9285 19.689 66.1365 19.48 65.2785 19.48C64.4425 19.48 63.6505 19.7 62.9025 20.14C62.1765 20.558 61.5825 21.174 61.1205 21.988C60.6805 22.802 60.4605 23.759 60.4605 24.859C60.4605 25.959 60.6805 26.916 61.1205 27.73C61.5825 28.544 62.1765 29.171 62.9025 29.611C63.6505 30.029 64.4425 30.238 65.2785 30.238C66.1365 30.238 66.9285 30.018 67.6545 29.578C68.4025 29.138 68.9965 28.511 69.4365 27.697C69.8985 26.883 70.1295 25.915 70.1295 24.793ZM83.5847 19.513V28.357C83.5847 28.973 83.7277 29.424 84.0137 29.71C84.3217 29.974 84.8277 30.106 85.5317 30.106H87.6767V34H84.7727C80.8787 34 78.9317 32.108 78.9317 28.324V19.513H76.7537V15.718H78.9317V11.197H83.5847V15.718H87.6767V19.513H83.5847ZM107.995 24.463C107.995 25.123 107.951 25.717 107.863 26.245H94.4977C94.6077 27.565 95.0697 28.599 95.8837 29.347C96.6977 30.095 97.6987 30.469 98.8867 30.469C100.603 30.469 101.824 29.732 102.55 28.258H107.533C107.005 30.018 105.993 31.47 104.497 32.614C103.001 33.736 101.164 34.297 98.9857 34.297C97.2257 34.297 95.6417 33.912 94.2337 33.142C92.8477 32.35 91.7587 31.239 90.9667 29.809C90.1967 28.379 89.8117 26.729 89.8117 24.859C89.8117 22.967 90.1967 21.306 90.9667 19.876C91.7367 18.446 92.8147 17.346 94.2007 16.576C95.5867 15.806 97.1817 15.421 98.9857 15.421C100.724 15.421 102.275 15.795 103.639 16.543C105.025 17.291 106.092 18.358 106.84 19.744C107.61 21.108 107.995 22.681 107.995 24.463ZM103.21 23.143C103.188 21.955 102.759 21.009 101.923 20.305C101.087 19.579 100.064 19.216 98.8537 19.216C97.7097 19.216 96.7417 19.568 95.9497 20.272C95.1797 20.954 94.7067 21.911 94.5307 23.143H103.21ZM118.363 34.297C116.867 34.297 115.525 34.033 114.337 33.505C113.149 32.955 112.203 32.218 111.499 31.294C110.817 30.37 110.443 29.347 110.377 28.225H115.03C115.118 28.929 115.459 29.512 116.053 29.974C116.669 30.436 117.428 30.667 118.33 30.667C119.21 30.667 119.892 30.491 120.376 30.139C120.882 29.787 121.135 29.336 121.135 28.786C121.135 28.192 120.827 27.752 120.211 27.466C119.617 27.158 118.66 26.828 117.34 26.476C115.976 26.146 114.854 25.805 113.974 25.453C113.116 25.101 112.368 24.562 111.73 23.836C111.114 23.11 110.806 22.131 110.806 20.899C110.806 19.887 111.092 18.963 111.664 18.127C112.258 17.291 113.094 16.631 114.172 16.147C115.272 15.663 116.559 15.421 118.033 15.421C120.211 15.421 121.949 15.971 123.247 17.071C124.545 18.149 125.26 19.612 125.392 21.46H120.97C120.904 20.734 120.596 20.162 120.046 19.744C119.518 19.304 118.803 19.084 117.901 19.084C117.065 19.084 116.416 19.238 115.954 19.546C115.514 19.854 115.294 20.283 115.294 20.833C115.294 21.449 115.602 21.922 116.218 22.252C116.834 22.56 117.791 22.879 119.089 23.209C120.409 23.539 121.498 23.88 122.356 24.232C123.214 24.584 123.951 25.134 124.567 25.882C125.205 26.608 125.535 27.576 125.557 28.786C125.557 29.842 125.26 30.788 124.666 31.624C124.094 32.46 123.258 33.12 122.158 33.604C121.08 34.066 119.815 34.297 118.363 34.297ZM128.161 24.793C128.161 22.945 128.524 21.306 129.25 19.876C129.998 18.446 130.999 17.346 132.253 16.576C133.529 15.806 134.948 15.421 136.51 15.421C137.874 15.421 139.062 15.696 140.074 16.246C141.108 16.796 141.933 17.489 142.549 18.325V15.718H147.202V34H142.549V31.327C141.955 32.185 141.13 32.9 140.074 33.472C139.04 34.022 137.841 34.297 136.477 34.297C134.937 34.297 133.529 33.901 132.253 33.109C130.999 32.317 129.998 31.206 129.25 29.776C128.524 28.324 128.161 26.663 128.161 24.793ZM142.549 24.859C142.549 23.737 142.329 22.78 141.889 21.988C141.449 21.174 140.855 20.558 140.107 20.14C139.359 19.7 138.556 19.48 137.698 19.48C136.84 19.48 136.048 19.689 135.322 20.107C134.596 20.525 134.002 21.141 133.54 21.955C133.1 22.747 132.88 23.693 132.88 24.793C132.88 25.893 133.1 26.861 133.54 27.697C134.002 28.511 134.596 29.138 135.322 29.578C136.07 30.018 136.862 30.238 137.698 30.238C138.556 30.238 139.359 30.029 140.107 29.611C140.855 29.171 141.449 28.555 141.889 27.763C142.329 26.949 142.549 25.981 142.549 24.859ZM174.419 15.454C176.663 15.454 178.467 16.147 179.831 17.533C181.217 18.897 181.91 20.811 181.91 23.275V34H177.29V23.902C177.29 22.472 176.927 21.383 176.201 20.635C175.475 19.865 174.485 19.48 173.231 19.48C171.977 19.48 170.976 19.865 170.228 20.635C169.502 21.383 169.139 22.472 169.139 23.902V34H164.519V23.902C164.519 22.472 164.156 21.383 163.43 20.635C162.704 19.865 161.714 19.48 160.46 19.48C159.184 19.48 158.172 19.865 157.424 20.635C156.698 21.383 156.335 22.472 156.335 23.902V34H151.715V15.718H156.335V17.929C156.929 17.159 157.688 16.554 158.612 16.114C159.558 15.674 160.592 15.454 161.714 15.454C163.144 15.454 164.42 15.762 165.542 16.378C166.664 16.972 167.533 17.83 168.149 18.952C168.743 17.896 169.601 17.049 170.723 16.411C171.867 15.773 173.099 15.454 174.419 15.454ZM208.281 29.611H199.107L197.589 34H192.738L201.021 10.933H206.4L214.683 34H209.799L208.281 29.611ZM207.027 25.915L203.694 16.279L200.361 25.915H207.027ZM228.075 15.454C229.461 15.454 230.693 15.762 231.771 16.378C232.849 16.972 233.685 17.863 234.279 19.051C234.895 20.217 235.203 21.625 235.203 23.275V34H230.583V23.902C230.583 22.45 230.22 21.339 229.494 20.569C228.768 19.777 227.778 19.381 226.524 19.381C225.248 19.381 224.236 19.777 223.488 20.569C222.762 21.339 222.399 22.45 222.399 23.902V34H217.779V9.58H222.399V17.995C222.993 17.203 223.785 16.587 224.775 16.147C225.765 15.685 226.865 15.454 228.075 15.454ZM262.3 15.454C264.544 15.454 266.348 16.147 267.712 17.533C269.098 18.897 269.791 20.811 269.791 23.275V34H265.171V23.902C265.171 22.472 264.808 21.383 264.082 20.635C263.356 19.865 262.366 19.48 261.112 19.48C259.858 19.48 258.857 19.865 258.109 20.635C257.383 21.383 257.02 22.472 257.02 23.902V34H252.4V23.902C252.4 22.472 252.037 21.383 251.311 20.635C250.585 19.865 249.595 19.48 248.341 19.48C247.065 19.48 246.053 19.865 245.305 20.635C244.579 21.383 244.216 22.472 244.216 23.902V34H239.596V15.718H244.216V17.929C244.81 17.159 245.569 16.554 246.493 16.114C247.439 15.674 248.473 15.454 249.595 15.454C251.025 15.454 252.301 15.762 253.423 16.378C254.545 16.972 255.414 17.83 256.03 18.952C256.624 17.896 257.482 17.049 258.604 16.411C259.748 15.773 260.98 15.454 262.3 15.454ZM291.17 24.463C291.17 25.123 291.126 25.717 291.038 26.245H277.673C277.783 27.565 278.245 28.599 279.059 29.347C279.873 30.095 280.874 30.469 282.062 30.469C283.778 30.469 284.999 29.732 285.725 28.258H290.708C290.18 30.018 289.168 31.47 287.672 32.614C286.176 33.736 284.339 34.297 282.161 34.297C280.401 34.297 278.817 33.912 277.409 33.142C276.023 32.35 274.934 31.239 274.142 29.809C273.372 28.379 272.987 26.729 272.987 24.859C272.987 22.967 273.372 21.306 274.142 19.876C274.912 18.446 275.99 17.346 277.376 16.576C278.762 15.806 280.357 15.421 282.161 15.421C283.899 15.421 285.45 15.795 286.814 16.543C288.2 17.291 289.267 18.358 290.015 19.744C290.785 21.108 291.17 22.681 291.17 24.463ZM286.385 23.143C286.363 21.955 285.934 21.009 285.098 20.305C284.262 19.579 283.239 19.216 282.029 19.216C280.885 19.216 279.917 19.568 279.125 20.272C278.355 20.954 277.882 21.911 277.706 23.143H286.385ZM293.355 24.793C293.355 22.945 293.718 21.306 294.444 19.876C295.192 18.446 296.204 17.346 297.48 16.576C298.756 15.806 300.175 15.421 301.737 15.421C302.925 15.421 304.058 15.685 305.136 16.213C306.214 16.719 307.072 17.401 307.71 18.259V9.58H312.396V34H307.71V31.294C307.138 32.196 306.335 32.922 305.301 33.472C304.267 34.022 303.068 34.297 301.704 34.297C300.164 34.297 298.756 33.901 297.48 33.109C296.204 32.317 295.192 31.206 294.444 29.776C293.718 28.324 293.355 26.663 293.355 24.793ZM307.743 24.859C307.743 23.737 307.523 22.78 307.083 21.988C306.643 21.174 306.049 20.558 305.301 20.14C304.553 19.7 303.75 19.48 302.892 19.48C302.034 19.48 301.242 19.689 300.516 20.107C299.79 20.525 299.196 21.141 298.734 21.955C298.294 22.747 298.074 23.693 298.074 24.793C298.074 25.893 298.294 26.861 298.734 27.697C299.196 28.511 299.79 29.138 300.516 29.578C301.264 30.018 302.056 30.238 302.892 30.238C303.75 30.238 304.553 30.029 305.301 29.611C306.049 29.171 306.643 28.555 307.083 27.763C307.523 26.949 307.743 25.981 307.743 24.859Z" fill="white"/>
</g>
<defs>
<clipPath id="clip0_1_72">
<rect width="316" height="41" fill="white"/>
</clipPath>
</defs>
</svg>
