<svg width="269" height="37" viewBox="0 0 269 37" fill="none" xmlns="http://www.w3.org/2000/svg">
<path d="M7.032 7.92V16.32H18.312V21.648H7.032V30.528H19.752V36H0.312V2.448H19.752V7.92H7.032ZM32.5789 13.296C33.4429 12.016 34.6269 10.976 36.1309 10.176C37.6669 9.376 39.4109 8.976 41.3629 8.976C43.6349 8.976 45.6829 9.536 47.5069 10.656C49.3629 11.776 50.8189 13.376 51.8749 15.456C52.9629 17.504 53.5069 19.888 53.5069 22.608C53.5069 25.328 52.9629 27.744 51.8749 29.856C50.8189 31.936 49.3629 33.552 47.5069 34.704C45.6829 35.856 43.6349 36.432 41.3629 36.432C39.3789 36.432 37.6349 36.048 36.1309 35.28C34.6589 34.48 33.4749 33.456 32.5789 32.208V36H25.8589V0.48H32.5789V13.296ZM46.6429 22.608C46.6429 21.008 46.3069 19.632 45.6349 18.48C44.9949 17.296 44.1309 16.4 43.0429 15.792C41.9869 15.184 40.8349 14.88 39.5869 14.88C38.3709 14.88 37.2189 15.2 36.1309 15.84C35.0749 16.448 34.2109 17.344 33.5389 18.528C32.8989 19.712 32.5789 21.104 32.5789 22.704C32.5789 24.304 32.8989 25.696 33.5389 26.88C34.2109 28.064 35.0749 28.976 36.1309 29.616C37.2189 30.224 38.3709 30.528 39.5869 30.528C40.8349 30.528 41.9869 30.208 43.0429 29.568C44.1309 28.928 44.9949 28.016 45.6349 26.832C46.3069 25.648 46.6429 24.24 46.6429 22.608ZM66.2141 14.928V27.792C66.2141 28.688 66.4221 29.344 66.8381 29.76C67.2861 30.144 68.0221 30.336 69.0461 30.336H72.1661V36H67.9421C62.2781 36 59.4461 33.248 59.4461 27.744V14.928H56.2781V9.408H59.4461V2.832H66.2141V9.408H72.1661V14.928H66.2141ZM101.72 22.128C101.72 23.088 101.656 23.952 101.528 24.72H82.0875C82.2475 26.64 82.9195 28.144 84.1035 29.232C85.2875 30.32 86.7435 30.864 88.4715 30.864C90.9675 30.864 92.7435 29.792 93.7995 27.648H101.048C100.28 30.208 98.8075 32.32 96.6315 33.984C94.4555 35.616 91.7835 36.432 88.6155 36.432C86.0555 36.432 83.7515 35.872 81.7035 34.752C79.6875 33.6 78.1035 31.984 76.9515 29.904C75.8315 27.824 75.2715 25.424 75.2715 22.704C75.2715 19.952 75.8315 17.536 76.9515 15.456C78.0715 13.376 79.6395 11.776 81.6555 10.656C83.6715 9.536 85.9915 8.976 88.6155 8.976C91.1435 8.976 93.3995 9.52 95.3835 10.608C97.3995 11.696 98.9515 13.248 100.04 15.264C101.16 17.248 101.72 19.536 101.72 22.128ZM94.7595 20.208C94.7275 18.48 94.1035 17.104 92.8875 16.08C91.6715 15.024 90.1835 14.496 88.4235 14.496C86.7595 14.496 85.3515 15.008 84.1995 16.032C83.0795 17.024 82.3915 18.416 82.1355 20.208H94.7595ZM116.801 36.432C114.625 36.432 112.673 36.048 110.945 35.28C109.217 34.48 107.841 33.408 106.817 32.064C105.825 30.72 105.281 29.232 105.185 27.6H111.953C112.081 28.624 112.577 29.472 113.441 30.144C114.337 30.816 115.441 31.152 116.753 31.152C118.033 31.152 119.025 30.896 119.729 30.384C120.465 29.872 120.833 29.216 120.833 28.416C120.833 27.552 120.385 26.912 119.489 26.496C118.625 26.048 117.233 25.568 115.312 25.056C113.329 24.576 111.697 24.08 110.417 23.568C109.169 23.056 108.081 22.272 107.153 21.216C106.257 20.16 105.809 18.736 105.809 16.944C105.809 15.472 106.225 14.128 107.057 12.912C107.921 11.696 109.137 10.736 110.705 10.032C112.305 9.328 114.177 8.976 116.321 8.976C119.489 8.976 122.017 9.776 123.905 11.376C125.793 12.944 126.833 15.072 127.025 17.76H120.593C120.497 16.704 120.049 15.872 119.249 15.264C118.481 14.624 117.441 14.304 116.129 14.304C114.913 14.304 113.969 14.528 113.297 14.976C112.657 15.424 112.337 16.048 112.337 16.848C112.337 17.744 112.785 18.432 113.681 18.912C114.577 19.36 115.969 19.824 117.857 20.304C119.777 20.784 121.361 21.28 122.609 21.792C123.857 22.304 124.929 23.104 125.825 24.192C126.753 25.248 127.233 26.656 127.265 28.416C127.265 29.952 126.833 31.328 125.969 32.544C125.137 33.76 123.921 34.72 122.321 35.424C120.753 36.096 118.913 36.432 116.801 36.432ZM131.053 22.608C131.053 19.92 131.581 17.536 132.637 15.456C133.725 13.376 135.181 11.776 137.005 10.656C138.861 9.536 140.925 8.976 143.197 8.976C145.181 8.976 146.909 9.376 148.381 10.176C149.885 10.976 151.085 11.984 151.981 13.2V9.408H158.749V36H151.981V32.112C151.117 33.36 149.917 34.4 148.381 35.232C146.877 36.032 145.133 36.432 143.149 36.432C140.909 36.432 138.861 35.856 137.005 34.704C135.181 33.552 133.725 31.936 132.637 29.856C131.581 27.744 131.053 25.328 131.053 22.608ZM151.981 22.704C151.981 21.072 151.661 19.68 151.021 18.528C150.381 17.344 149.517 16.448 148.429 15.84C147.341 15.2 146.173 14.88 144.925 14.88C143.677 14.88 142.525 15.184 141.469 15.792C140.413 16.4 139.549 17.296 138.877 18.48C138.237 19.632 137.917 21.008 137.917 22.608C137.917 24.208 138.237 25.616 138.877 26.832C139.549 28.016 140.413 28.928 141.469 29.568C142.557 30.208 143.709 30.528 144.925 30.528C146.173 30.528 147.341 30.224 148.429 29.616C149.517 28.976 150.381 28.08 151.021 26.928C151.661 25.744 151.981 24.336 151.981 22.704ZM198.336 9.024C201.6 9.024 204.224 10.032 206.208 12.048C208.224 14.032 209.232 16.816 209.232 20.4V36H202.512V21.312C202.512 19.232 201.984 17.648 200.928 16.56C199.872 15.44 198.432 14.88 196.608 14.88C194.784 14.88 193.328 15.44 192.24 16.56C191.184 17.648 190.656 19.232 190.656 21.312V36H183.936V21.312C183.936 19.232 183.408 17.648 182.352 16.56C181.296 15.44 179.856 14.88 178.032 14.88C176.176 14.88 174.704 15.44 173.616 16.56C172.56 17.648 172.032 19.232 172.032 21.312V36H165.312V9.408H172.032V12.624C172.896 11.504 174 10.624 175.344 9.984C176.72 9.344 178.224 9.024 179.856 9.024C181.936 9.024 183.792 9.472 185.424 10.368C187.056 11.232 188.32 12.48 189.216 14.112C190.08 12.576 191.328 11.344 192.96 10.416C194.624 9.488 196.416 9.024 198.336 9.024ZM247.59 29.616H234.246L232.038 36H224.982L237.03 2.448H244.854L256.902 36H249.798L247.59 29.616ZM245.766 24.24L240.918 10.224L236.07 24.24H245.766ZM264.382 36.336C263.166 36.336 262.158 35.968 261.358 35.232C260.59 34.464 260.206 33.52 260.206 32.4C260.206 31.28 260.59 30.352 261.358 29.616C262.158 28.848 263.166 28.464 264.382 28.464C265.566 28.464 266.542 28.848 267.31 29.616C268.078 30.352 268.462 31.28 268.462 32.4C268.462 33.52 268.078 34.464 267.31 35.232C266.542 35.968 265.566 36.336 264.382 36.336Z" fill="white"/>
</svg>
