<svg width="334" height="31" viewBox="0 0 334 31" fill="none" xmlns="http://www.w3.org/2000/svg">
<path d="M6.36 6.6V13.6H15.76V18.04H6.36V25.44H16.96V30H0.76V2.04H16.96V6.6H6.36ZM27.6491 11.08C28.3691 10.0133 29.3557 9.14667 30.6091 8.48C31.8891 7.81333 33.3424 7.48 34.9691 7.48C36.8624 7.48 38.5691 7.94667 40.0891 8.88C41.6357 9.81333 42.8491 11.1467 43.7291 12.88C44.6357 14.5867 45.0891 16.5733 45.0891 18.84C45.0891 21.1067 44.6357 23.12 43.7291 24.88C42.8491 26.6133 41.6357 27.96 40.0891 28.92C38.5691 29.88 36.8624 30.36 34.9691 30.36C33.3157 30.36 31.8624 30.04 30.6091 29.4C29.3824 28.7333 28.3957 27.88 27.6491 26.84V30H22.0491V0.4H27.6491V11.08ZM39.3691 18.84C39.3691 17.5067 39.0891 16.36 38.5291 15.4C37.9957 14.4133 37.2757 13.6667 36.3691 13.16C35.4891 12.6533 34.5291 12.4 33.4891 12.4C32.4757 12.4 31.5157 12.6667 30.6091 13.2C29.7291 13.7067 29.0091 14.4533 28.4491 15.44C27.9157 16.4267 27.6491 17.5867 27.6491 18.92C27.6491 20.2533 27.9157 21.4133 28.4491 22.4C29.0091 23.3867 29.7291 24.1467 30.6091 24.68C31.5157 25.1867 32.4757 25.44 33.4891 25.44C34.5291 25.44 35.4891 25.1733 36.3691 24.64C37.2757 24.1067 37.9957 23.3467 38.5291 22.36C39.0891 21.3733 39.3691 20.2 39.3691 18.84ZM55.6784 12.44V23.16C55.6784 23.9067 55.8518 24.4533 56.1984 24.8C56.5718 25.12 57.1851 25.28 58.0384 25.28H60.6384V30H57.1184C52.3984 30 50.0384 27.7067 50.0384 23.12V12.44H47.3984V7.84H50.0384V2.36H55.6784V7.84H60.6384V12.44H55.6784ZM85.2663 18.44C85.2663 19.24 85.2129 19.96 85.1063 20.6H68.9063C69.0396 22.2 69.5996 23.4533 70.5863 24.36C71.5729 25.2667 72.7863 25.72 74.2263 25.72C76.3063 25.72 77.7863 24.8267 78.6663 23.04H84.7063C84.0663 25.1733 82.8396 26.9333 81.0263 28.32C79.2129 29.68 76.9863 30.36 74.3463 30.36C72.2129 30.36 70.2929 29.8933 68.5863 28.96C66.9063 28 65.5863 26.6533 64.6263 24.92C63.6929 23.1867 63.2262 21.1867 63.2262 18.92C63.2262 16.6267 63.6929 14.6133 64.6263 12.88C65.5596 11.1467 66.8663 9.81333 68.5463 8.88C70.2263 7.94667 72.1596 7.48 74.3463 7.48C76.4529 7.48 78.3329 7.93333 79.9863 8.84C81.6663 9.74667 82.9596 11.04 83.8663 12.72C84.7996 14.3733 85.2663 16.28 85.2663 18.44ZM79.4663 16.84C79.4396 15.4 78.9196 14.2533 77.9063 13.4C76.8929 12.52 75.6529 12.08 74.1863 12.08C72.7996 12.08 71.6263 12.5067 70.6663 13.36C69.7329 14.1867 69.1596 15.3467 68.9463 16.84H79.4663ZM97.8338 30.36C96.0204 30.36 94.3938 30.04 92.9538 29.4C91.5138 28.7333 90.3671 27.84 89.5138 26.72C88.6871 25.6 88.2338 24.36 88.1538 23H93.7938C93.9004 23.8533 94.3138 24.56 95.0338 25.12C95.7804 25.68 96.7004 25.96 97.7938 25.96C98.8604 25.96 99.6871 25.7467 100.274 25.32C100.887 24.8933 101.194 24.3467 101.194 23.68C101.194 22.96 100.82 22.4267 100.074 22.08C99.3538 21.7067 98.1938 21.3067 96.5938 20.88C94.9404 20.48 93.5804 20.0667 92.5138 19.64C91.4738 19.2133 90.5671 18.56 89.7938 17.68C89.0471 16.8 88.6738 15.6133 88.6738 14.12C88.6738 12.8933 89.0204 11.7733 89.7138 10.76C90.4338 9.74666 91.4471 8.94667 92.7538 8.36C94.0871 7.77333 95.6471 7.48 97.4338 7.48C100.074 7.48 102.18 8.14667 103.754 9.48C105.327 10.7867 106.194 12.56 106.354 14.8H100.994C100.914 13.92 100.54 13.2267 99.8738 12.72C99.2338 12.1867 98.3671 11.92 97.2738 11.92C96.2604 11.92 95.4738 12.1067 94.9138 12.48C94.3804 12.8533 94.1138 13.3733 94.1138 14.04C94.1138 14.7867 94.4871 15.36 95.2338 15.76C95.9804 16.1333 97.1404 16.52 98.7138 16.92C100.314 17.32 101.634 17.7333 102.674 18.16C103.714 18.5867 104.607 19.2533 105.354 20.16C106.127 21.04 106.527 22.2133 106.554 23.68C106.554 24.96 106.194 26.1067 105.474 27.12C104.78 28.1333 103.767 28.9333 102.434 29.52C101.127 30.08 99.5938 30.36 97.8338 30.36ZM109.711 18.84C109.711 16.6 110.151 14.6133 111.031 12.88C111.937 11.1467 113.151 9.81333 114.671 8.88C116.217 7.94667 117.937 7.48 119.831 7.48C121.484 7.48 122.924 7.81333 124.151 8.48C125.404 9.14667 126.404 9.98667 127.151 11V7.84H132.791V30H127.151V26.76C126.431 27.8 125.431 28.6667 124.151 29.36C122.897 30.0267 121.444 30.36 119.791 30.36C117.924 30.36 116.217 29.88 114.671 28.92C113.151 27.96 111.937 26.6133 111.031 24.88C110.151 23.12 109.711 21.1067 109.711 18.84ZM127.151 18.92C127.151 17.56 126.884 16.4 126.351 15.44C125.817 14.4533 125.097 13.7067 124.191 13.2C123.284 12.6667 122.311 12.4 121.271 12.4C120.231 12.4 119.271 12.6533 118.391 13.16C117.511 13.6667 116.791 14.4133 116.231 15.4C115.697 16.36 115.431 17.5067 115.431 18.84C115.431 20.1733 115.697 21.3467 116.231 22.36C116.791 23.3467 117.511 24.1067 118.391 24.64C119.297 25.1733 120.257 25.44 121.271 25.44C122.311 25.44 123.284 25.1867 124.191 24.68C125.097 24.1467 125.817 23.4 126.351 22.44C126.884 21.4533 127.151 20.28 127.151 18.92ZM165.78 7.52C168.5 7.52 170.687 8.36 172.34 10.04C174.02 11.6933 174.86 14.0133 174.86 17V30H169.26V17.76C169.26 16.0267 168.82 14.7067 167.94 13.8C167.06 12.8667 165.86 12.4 164.34 12.4C162.82 12.4 161.607 12.8667 160.7 13.8C159.82 14.7067 159.38 16.0267 159.38 17.76V30H153.78V17.76C153.78 16.0267 153.34 14.7067 152.46 13.8C151.58 12.8667 150.38 12.4 148.86 12.4C147.313 12.4 146.087 12.8667 145.18 13.8C144.3 14.7067 143.86 16.0267 143.86 17.76V30H138.26V7.84H143.86V10.52C144.58 9.58667 145.5 8.85333 146.62 8.32C147.767 7.78666 149.02 7.52 150.38 7.52C152.113 7.52 153.66 7.89333 155.02 8.64C156.38 9.36 157.433 10.4 158.18 11.76C158.9 10.48 159.94 9.45333 161.3 8.68C162.687 7.90667 164.18 7.52 165.78 7.52ZM206.825 24.68H195.705L193.865 30H187.985L198.025 2.04H204.545L214.585 30H208.665L206.825 24.68ZM205.305 20.2L201.265 8.52L197.225 20.2H205.305ZM230.818 7.52C232.498 7.52 233.991 7.89333 235.298 8.64C236.605 9.36 237.618 10.44 238.338 11.88C239.085 13.2933 239.458 15 239.458 17V30H233.858V17.76C233.858 16 233.418 14.6533 232.538 13.72C231.658 12.76 230.458 12.28 228.938 12.28C227.391 12.28 226.165 12.76 225.258 13.72C224.378 14.6533 223.938 16 223.938 17.76V30H218.338V0.4H223.938V10.6C224.658 9.64 225.618 8.89333 226.818 8.36C228.018 7.8 229.351 7.52 230.818 7.52ZM272.303 7.52C275.023 7.52 277.21 8.36 278.863 10.04C280.543 11.6933 281.383 14.0133 281.383 17V30H275.783V17.76C275.783 16.0267 275.343 14.7067 274.463 13.8C273.583 12.8667 272.383 12.4 270.863 12.4C269.343 12.4 268.13 12.8667 267.223 13.8C266.343 14.7067 265.903 16.0267 265.903 17.76V30H260.303V17.76C260.303 16.0267 259.863 14.7067 258.983 13.8C258.103 12.8667 256.903 12.4 255.383 12.4C253.837 12.4 252.61 12.8667 251.703 13.8C250.823 14.7067 250.383 16.0267 250.383 17.76V30H244.783V7.84H250.383V10.52C251.103 9.58667 252.023 8.85333 253.143 8.32C254.29 7.78666 255.543 7.52 256.903 7.52C258.637 7.52 260.183 7.89333 261.543 8.64C262.903 9.36 263.957 10.4 264.703 11.76C265.423 10.48 266.463 9.45333 267.823 8.68C269.21 7.90667 270.703 7.52 272.303 7.52ZM307.298 18.44C307.298 19.24 307.244 19.96 307.138 20.6H290.938C291.071 22.2 291.631 23.4533 292.618 24.36C293.604 25.2667 294.818 25.72 296.258 25.72C298.338 25.72 299.818 24.8267 300.698 23.04H306.738C306.098 25.1733 304.871 26.9333 303.058 28.32C301.244 29.68 299.018 30.36 296.378 30.36C294.244 30.36 292.324 29.8933 290.618 28.96C288.938 28 287.618 26.6533 286.658 24.92C285.724 23.1867 285.257 21.1867 285.257 18.92C285.257 16.6267 285.724 14.6133 286.658 12.88C287.591 11.1467 288.898 9.81333 290.578 8.88C292.258 7.94667 294.191 7.48 296.378 7.48C298.484 7.48 300.364 7.93333 302.018 8.84C303.698 9.74667 304.991 11.04 305.898 12.72C306.831 14.3733 307.298 16.28 307.298 18.44ZM301.498 16.84C301.471 15.4 300.951 14.2533 299.938 13.4C298.924 12.52 297.684 12.08 296.218 12.08C294.831 12.08 293.658 12.5067 292.698 13.36C291.764 14.1867 291.191 15.3467 290.978 16.84H301.498ZM309.945 18.84C309.945 16.6 310.385 14.6133 311.265 12.88C312.172 11.1467 313.398 9.81333 314.945 8.88C316.492 7.94667 318.212 7.48 320.105 7.48C321.545 7.48 322.918 7.8 324.225 8.44C325.532 9.05333 326.572 9.88 327.345 10.92V0.4H333.025V30H327.345V26.72C326.652 27.8133 325.678 28.6933 324.425 29.36C323.172 30.0267 321.718 30.36 320.065 30.36C318.198 30.36 316.492 29.88 314.945 28.92C313.398 27.96 312.172 26.6133 311.265 24.88C310.385 23.12 309.945 21.1067 309.945 18.84ZM327.385 18.92C327.385 17.56 327.118 16.4 326.585 15.44C326.052 14.4533 325.332 13.7067 324.425 13.2C323.518 12.6667 322.545 12.4 321.505 12.4C320.465 12.4 319.505 12.6533 318.625 13.16C317.745 13.6667 317.025 14.4133 316.465 15.4C315.932 16.36 315.665 17.5067 315.665 18.84C315.665 20.1733 315.932 21.3467 316.465 22.36C317.025 23.3467 317.745 24.1067 318.625 24.64C319.532 25.1733 320.492 25.44 321.505 25.44C322.545 25.44 323.518 25.1867 324.425 24.68C325.332 24.1467 326.052 23.4 326.585 22.44C327.118 21.4533 327.385 20.28 327.385 18.92Z" fill="white"/>
</svg>
