<svg width="267" height="25" viewBox="0 0 267 25" fill="none" xmlns="http://www.w3.org/2000/svg">
<path d="M4.688 5.28V10.88H12.208V14.432H4.688V20.352H13.168V24H0.208V1.632H13.168V5.28H4.688ZM21.7193 8.864C22.2953 8.01067 23.0846 7.31733 24.0873 6.784C25.1113 6.25067 26.2739 5.984 27.5753 5.984C29.0899 5.984 30.4553 6.35733 31.6713 7.104C32.9086 7.85067 33.8793 8.91733 34.5833 10.304C35.3086 11.6693 35.6713 13.2587 35.6713 15.072C35.6713 16.8853 35.3086 18.496 34.5833 19.904C33.8793 21.2907 32.9086 22.368 31.6713 23.136C30.4553 23.904 29.0899 24.288 27.5753 24.288C26.2526 24.288 25.0899 24.032 24.0873 23.52C23.1059 22.9867 22.3166 22.304 21.7193 21.472V24H17.2393V0.32H21.7193V8.864ZM31.0953 15.072C31.0953 14.0053 30.8713 13.088 30.4233 12.32C29.9966 11.5307 29.4206 10.9333 28.6953 10.528C27.9913 10.1227 27.2233 9.92 26.3913 9.92C25.5806 9.92 24.8126 10.1333 24.0873 10.56C23.3833 10.9653 22.8073 11.5627 22.3593 12.352C21.9326 13.1413 21.7193 14.0693 21.7193 15.136C21.7193 16.2027 21.9326 17.1307 22.3593 17.92C22.8073 18.7093 23.3833 19.3173 24.0873 19.744C24.8126 20.1493 25.5806 20.352 26.3913 20.352C27.2233 20.352 27.9913 20.1387 28.6953 19.712C29.4206 19.2853 29.9966 18.6773 30.4233 17.888C30.8713 17.0987 31.0953 16.16 31.0953 15.072ZM44.1428 9.952V18.528C44.1428 19.1253 44.2814 19.5627 44.5588 19.84C44.8574 20.096 45.3481 20.224 46.0308 20.224H48.1108V24H45.2948C41.5188 24 39.6308 22.1653 39.6308 18.496V9.952H37.5188V6.272H39.6308V1.888H44.1428V6.272H48.1108V9.952H44.1428ZM67.813 14.752C67.813 15.392 67.7703 15.968 67.685 16.48H54.725C54.8317 17.76 55.2797 18.7627 56.069 19.488C56.8583 20.2133 57.829 20.576 58.981 20.576C60.645 20.576 61.829 19.8613 62.533 18.432H67.365C66.853 20.1387 65.8717 21.5467 64.421 22.656C62.9703 23.744 61.189 24.288 59.077 24.288C57.3703 24.288 55.8343 23.9147 54.469 23.168C53.125 22.4 52.069 21.3227 51.301 19.936C50.5543 18.5493 50.181 16.9493 50.181 15.136C50.181 13.3013 50.5543 11.6907 51.301 10.304C52.0477 8.91733 53.093 7.85067 54.437 7.104C55.781 6.35733 57.3277 5.984 59.077 5.984C60.7623 5.984 62.2663 6.34667 63.589 7.072C64.933 7.79733 65.9677 8.832 66.693 10.176C67.4397 11.4987 67.813 13.024 67.813 14.752ZM63.173 13.472C63.1517 12.32 62.7357 11.4027 61.925 10.72C61.1143 10.016 60.1223 9.664 58.949 9.664C57.8397 9.664 56.901 10.0053 56.133 10.688C55.3863 11.3493 54.9277 12.2773 54.757 13.472H63.173ZM77.867 24.288C76.4163 24.288 75.115 24.032 73.963 23.52C72.811 22.9867 71.8937 22.272 71.211 21.376C70.5497 20.48 70.187 19.488 70.123 18.4H74.635C74.7203 19.0827 75.051 19.648 75.627 20.096C76.2243 20.544 76.9603 20.768 77.835 20.768C78.6883 20.768 79.3497 20.5973 79.819 20.256C80.3097 19.9147 80.555 19.4773 80.555 18.944C80.555 18.368 80.2563 17.9413 79.659 17.664C79.083 17.3653 78.155 17.0453 76.875 16.704C75.5523 16.384 74.4643 16.0533 73.611 15.712C72.779 15.3707 72.0537 14.848 71.435 14.144C70.8377 13.44 70.539 12.4907 70.539 11.296C70.539 10.3147 70.8163 9.41867 71.371 8.608C71.947 7.79733 72.7577 7.15733 73.803 6.688C74.8697 6.21867 76.1177 5.984 77.547 5.984C79.659 5.984 81.3443 6.51733 82.603 7.584C83.8617 8.62933 84.555 10.048 84.683 11.84H80.395C80.331 11.136 80.0323 10.5813 79.499 10.176C78.987 9.74933 78.2937 9.536 77.419 9.536C76.6083 9.536 75.979 9.68533 75.531 9.984C75.1043 10.2827 74.891 10.6987 74.891 11.232C74.891 11.8293 75.1897 12.288 75.787 12.608C76.3843 12.9067 77.3123 13.216 78.571 13.536C79.851 13.856 80.907 14.1867 81.739 14.528C82.571 14.8693 83.2857 15.4027 83.883 16.128C84.5017 16.832 84.8217 17.7707 84.843 18.944C84.843 19.968 84.555 20.8853 83.979 21.696C83.4243 22.5067 82.6137 23.1467 81.547 23.616C80.5017 24.064 79.275 24.288 77.867 24.288ZM87.3685 15.072C87.3685 13.28 87.7205 11.6907 88.4245 10.304C89.1498 8.91733 90.1205 7.85067 91.3365 7.104C92.5738 6.35733 93.9498 5.984 95.4645 5.984C96.7872 5.984 97.9392 6.25067 98.9205 6.784C99.9232 7.31733 100.723 7.98933 101.321 8.8V6.272H105.833V24H101.321V21.408C100.745 22.24 99.9445 22.9333 98.9205 23.488C97.9178 24.0213 96.7552 24.288 95.4325 24.288C93.9392 24.288 92.5738 23.904 91.3365 23.136C90.1205 22.368 89.1498 21.2907 88.4245 19.904C87.7205 18.496 87.3685 16.8853 87.3685 15.072ZM101.321 15.136C101.321 14.048 101.107 13.12 100.681 12.352C100.254 11.5627 99.6778 10.9653 98.9525 10.56C98.2272 10.1333 97.4485 9.92 96.6165 9.92C95.7845 9.92 95.0165 10.1227 94.3125 10.528C93.6085 10.9333 93.0325 11.5307 92.5845 12.32C92.1578 13.088 91.9445 14.0053 91.9445 15.072C91.9445 16.1387 92.1578 17.0773 92.5845 17.888C93.0325 18.6773 93.6085 19.2853 94.3125 19.712C95.0378 20.1387 95.8058 20.352 96.6165 20.352C97.4485 20.352 98.2272 20.1493 98.9525 19.744C99.6778 19.3173 100.254 18.72 100.681 17.952C101.107 17.1627 101.321 16.224 101.321 15.136ZM132.224 6.016C134.4 6.016 136.149 6.688 137.472 8.032C138.816 9.35467 139.488 11.2107 139.488 13.6V24H135.008V14.208C135.008 12.8213 134.656 11.7653 133.952 11.04C133.248 10.2933 132.288 9.92 131.072 9.92C129.856 9.92 128.885 10.2933 128.16 11.04C127.456 11.7653 127.104 12.8213 127.104 14.208V24H122.624V14.208C122.624 12.8213 122.272 11.7653 121.568 11.04C120.864 10.2933 119.904 9.92 118.688 9.92C117.451 9.92 116.469 10.2933 115.744 11.04C115.04 11.7653 114.688 12.8213 114.688 14.208V24H110.208V6.272H114.688V8.416C115.264 7.66933 116 7.08267 116.896 6.656C117.813 6.22933 118.816 6.016 119.904 6.016C121.291 6.016 122.528 6.31467 123.616 6.912C124.704 7.488 125.547 8.32 126.144 9.408C126.72 8.384 127.552 7.56267 128.64 6.944C129.749 6.32533 130.944 6.016 132.224 6.016ZM165.06 19.744H156.164L154.692 24H149.988L158.02 1.632H163.236L171.268 24H166.532L165.06 19.744ZM163.844 16.16L160.612 6.816L157.38 16.16H163.844ZM184.255 6.016C185.599 6.016 186.793 6.31467 187.839 6.912C188.884 7.488 189.695 8.352 190.271 9.504C190.868 10.6347 191.167 12 191.167 13.6V24H186.687V14.208C186.687 12.8 186.335 11.7227 185.631 10.976C184.927 10.208 183.967 9.824 182.751 9.824C181.513 9.824 180.532 10.208 179.807 10.976C179.103 11.7227 178.751 12.8 178.751 14.208V24H174.271V0.32H178.751V8.48C179.327 7.712 180.095 7.11467 181.055 6.688C182.015 6.24 183.081 6.016 184.255 6.016ZM217.443 6.016C219.619 6.016 221.368 6.688 222.691 8.032C224.035 9.35467 224.707 11.2107 224.707 13.6V24H220.227V14.208C220.227 12.8213 219.875 11.7653 219.171 11.04C218.467 10.2933 217.507 9.92 216.291 9.92C215.075 9.92 214.104 10.2933 213.379 11.04C212.675 11.7653 212.323 12.8213 212.323 14.208V24H207.843V14.208C207.843 12.8213 207.491 11.7653 206.787 11.04C206.083 10.2933 205.123 9.92 203.907 9.92C202.669 9.92 201.688 10.2933 200.963 11.04C200.259 11.7653 199.907 12.8213 199.907 14.208V24H195.427V6.272H199.907V8.416C200.483 7.66933 201.219 7.08267 202.115 6.656C203.032 6.22933 204.035 6.016 205.123 6.016C206.509 6.016 207.747 6.31467 208.835 6.912C209.923 7.488 210.765 8.32 211.363 9.408C211.939 8.384 212.771 7.56267 213.859 6.944C214.968 6.32533 216.163 6.016 217.443 6.016ZM245.438 14.752C245.438 15.392 245.395 15.968 245.31 16.48H232.35C232.457 17.76 232.905 18.7627 233.694 19.488C234.483 20.2133 235.454 20.576 236.606 20.576C238.27 20.576 239.454 19.8613 240.158 18.432H244.99C244.478 20.1387 243.497 21.5467 242.046 22.656C240.595 23.744 238.814 24.288 236.702 24.288C234.995 24.288 233.459 23.9147 232.094 23.168C230.75 22.4 229.694 21.3227 228.926 19.936C228.179 18.5493 227.806 16.9493 227.806 15.136C227.806 13.3013 228.179 11.6907 228.926 10.304C229.673 8.91733 230.718 7.85067 232.062 7.104C233.406 6.35733 234.953 5.984 236.702 5.984C238.387 5.984 239.891 6.34667 241.214 7.072C242.558 7.79733 243.593 8.832 244.318 10.176C245.065 11.4987 245.438 13.024 245.438 14.752ZM240.798 13.472C240.777 12.32 240.361 11.4027 239.55 10.72C238.739 10.016 237.747 9.664 236.574 9.664C235.465 9.664 234.526 10.0053 233.758 10.688C233.011 11.3493 232.553 12.2773 232.382 13.472H240.798ZM247.556 15.072C247.556 13.28 247.908 11.6907 248.612 10.304C249.337 8.91733 250.319 7.85067 251.556 7.104C252.793 6.35733 254.169 5.984 255.684 5.984C256.836 5.984 257.935 6.24 258.98 6.752C260.025 7.24267 260.857 7.904 261.476 8.736V0.32H266.02V24H261.476V21.376C260.921 22.2507 260.143 22.9547 259.14 23.488C258.137 24.0213 256.975 24.288 255.652 24.288C254.159 24.288 252.793 23.904 251.556 23.136C250.319 22.368 249.337 21.2907 248.612 19.904C247.908 18.496 247.556 16.8853 247.556 15.072ZM261.508 15.136C261.508 14.048 261.295 13.12 260.868 12.352C260.441 11.5627 259.865 10.9653 259.14 10.56C258.415 10.1333 257.636 9.92 256.804 9.92C255.972 9.92 255.204 10.1227 254.5 10.528C253.796 10.9333 253.22 11.5307 252.772 12.32C252.345 13.088 252.132 14.0053 252.132 15.072C252.132 16.1387 252.345 17.0773 252.772 17.888C253.22 18.6773 253.796 19.2853 254.5 19.712C255.225 20.1387 255.993 20.352 256.804 20.352C257.636 20.352 258.415 20.1493 259.14 19.744C259.865 19.3173 260.441 18.72 260.868 17.952C261.295 17.1627 261.508 16.224 261.508 15.136Z" fill="white"/>
</svg>
